<?xml version="1.0" standalone="no"?>
<!DOCTYPE svg PUBLIC "-//W3C//DTD SVG 20010904//EN"
 "http://www.w3.org/TR/2001/REC-SVG-20010904/DTD/svg10.dtd">
<svg version="1.0" xmlns="http://www.w3.org/2000/svg"
 width="1301.000000pt" height="1301.000000pt" viewBox="0 0 1301.000000 1301.000000"
 preserveAspectRatio="xMidYMid meet">

<g transform="translate(0.000000,1301.000000) scale(0.100000,-0.100000)"
fill="#000000" stroke="none">
<path d="M6050 12989 c-1832 -139 -3484 -1014 -4627 -2450 -1298 -1632 -1726
-3809 -1147 -5830 359 -1254 1111 -2392 2134 -3230 961 -787 2143 -1285 3380
-1423 269 -31 470 -38 840 -33 376 5 564 20 870 66 1783 273 3373 1278 4392
2776 870 1280 1252 2830 1077 4380 -216 1921 -1279 3642 -2909 4708 -770 503
-1647 838 -2560 978 -330 50 -486 61 -920 64 -228 2 -467 -1 -530 -6z m970
-654 c2033 -176 3822 -1395 4734 -3225 340 -683 537 -1410 596 -2195 22 -299
11 -756 -26 -1080 -169 -1504 -941 -2906 -2128 -3869 -53 -43 -98 -77 -100
-75 -2 2 189 1377 425 3054 382 2715 428 3056 420 3106 -41 245 -308 378 -524
261 -66 -35 -141 -120 -166 -186 -13 -36 -52 -282 -118 -750 l-97 -696 -2622
0 -2622 0 -11 68 c-6 37 -52 346 -101 687 -49 341 -94 640 -100 664 -17 70
-54 133 -109 184 -77 72 -127 91 -241 92 -83 0 -102 -3 -152 -27 -112 -52
-194 -167 -205 -286 -4 -43 120 -918 512 -3610 285 -1953 516 -3554 513 -3557
-8 -8 -334 100 -513 170 -1349 529 -2450 1537 -3101 2836 -326 652 -513 1311
-591 2079 -24 246 -24 814 0 1060 78 768 265 1427 591 2079 829 1656 2389
2824 4197 3146 261 46 452 67 824 89 116 7 542 -5 715 -19z m2908 -6400 c2 -2
-613 -4404 -634 -4538 -6 -38 -7 -38 -162 -116 -462 -231 -938 -396 -1444
-500 -594 -123 -1256 -149 -1885 -74 -139 16 -142 17 -147 42 -8 37 -756 5176
-756 5191 0 10 496 11 2513 5 1381 -4 2513 -8 2515 -10z"/>
<path d="M4385 10099 c-773 -60 -1473 -469 -1904 -1114 -199 -298 -328 -619
-393 -982 -20 -114 -23 -160 -23 -408 0 -248 3 -294 23 -408 110 -611 392
-1098 877 -1514 157 -135 184 -148 315 -148 89 0 112 3 152 23 74 37 134 96
170 170 30 60 33 75 33 157 0 82 -3 97 -33 157 -21 42 -49 81 -75 102 -23 20
-76 64 -117 98 -322 270 -527 618 -612 1038 -30 151 -33 470 -5 620 71 384
236 699 507 970 269 269 586 437 957 506 120 22 394 30 523 14 484 -56 909
-301 1218 -703 64 -84 97 -114 162 -148 39 -21 59 -24 150 -24 101 0 108 1
168 34 74 40 124 93 161 171 22 47 26 68 26 150 0 115 -22 171 -106 266 -30
34 -90 103 -134 153 -410 473 -1030 774 -1690 821 -156 11 -192 11 -350 -1z"/>
</g>
</svg>
